#!OML:ASF F:\VICON\USERDATA\INSTALL\rory3\rory3.ASF
:FULLY-SPECIFIED
:DEGREES
929
root 6.45333 15.5522 -9.30808 45.46 -57.1402 -15.5431
lowerback -4.66945 6.24517 0.716928
upperback -11.2158 7.82874 -5.65884
thorax -8.35721 3.48363 -6.56293
lowerneck -8.5277 1.32385 4.51594
upperneck 42.666 -2.6625 5.44997
head 17.1243 -0.0742159 1.10385
rclavicle 2.14687e-014 1.59028e-015
rhumerus 51.5738 -34.008 -24.9325
rradius 41.7796
rwrist -27.6081
rhand 8.78652 8.21147
rfingers 7.12502
rthumb 33.9745 -18.5779
lclavicle 2.14687e-014 1.59028e-015
lhumerus -33.1609 23.3452 46.6731
lradius 11.7752
lwrist -60.2845
lhand -1.43845 25.0715
lfingers 7.12502
lthumb 24.2119 53.5631
rfemur -77.9543 15.6071 17.8975
rtibia 48.919
rfoot -15.1707 -24.467
rtoes 6.02802
lfemur -56.1018 15.9224 -33.5962
ltibia 57.7735
lfoot -35.8765 11.1595
ltoes -27.9166
930
root 6.44436 15.4934 -9.2864 44.1962 -56.9299 -14.2454
lowerback -4.29901 5.81426 0.401043
upperback -11.1102 7.23684 -5.67528
thorax -8.55682 3.20309 -6.44404
lowerneck -8.8027 1.50771 4.7969
upperneck 42.5484 -2.42829 5.35652
head 17.122 0.0572442 1.04575
rclavicle 1.34378e-013 -6.36111e-014
rhumerus 51.2059 -34.8188 -24.5558
rradius 42.6328
rwrist -28.1785
rhand 6.38743 9.174
rfingers 7.12502
rthumb 31.6924 -18.0932
lclavicle 1.34378e-013 -6.36111e-014
lhumerus -33.5853 22.2877 47.6386
lradius 11.6996
lwrist -60.4061
lhand -1.0695 24.6247
lfingers 7.12502
lthumb 24.5656 53.0687
rfemur -79.7076 14.4146 19.4757
rtibia 48.5259
rfoot -12.548 -23.6074
rtoes 5.41294
lfemur -56.2717 16.1916 -34.4914
ltibia 58.5655
lfoot -35.8647 11.1793
ltoes -30.1656
931
root 6.43962 15.4651 -9.27578 42.4062 -56.2496 -12.7395
lowerback -3.55944 5.26088 0.239411
upperback -10.9352 6.48862 -5.5844
thorax -8.90032 2.83545 -6.31967
lowerneck -8.76179 1.70806 4.89483
upperneck 42.3409 -2.13878 5.39038
head 16.9889 0.190599 1.08273
rclavicle 9.14409e-015 -1.27222e-014
rhumerus 50.6322 -35.44 -24.0524
rradius 43.5409
rwrist -28.8179
rhand 3.76968 10.0676
rfingers 7.12502
rthumb 29.1958 -17.6623
lclavicle 9.14409e-015 -1.27222e-014
lhumerus -34.4248 22.583 47.8797
lradius 11.6
lwrist -62.0097
lhand -1.65472 24.3254
lfingers 7.12502
lthumb 24.0045 52.8444
rfemur -80.8678 13.0383 21.0929
rtibia 48.0061
rfoot -10.8228 -22.4502
rtoes 8.20019
lfemur -55.8871 16.2393 -34.9979
ltibia 59.1471
lfoot -35.6589 11.1981
ltoes -32.5241
932
root 6.42716 15.3994 -9.2693 40.5311 -55.1595 -11.4261
lowerback -2.63511 4.69669 0.342603
upperback -10.6476 5.73973 -5.47665
thorax -9.19856 2.45365 -6.3154
lowerneck -8.75371 1.80366 4.81041
upperneck 42.1206 -2.0892 5.72932
head 16.8706 0.236151 1.25187
rclavicle 7.95139e-016 1.59028e-015
rhumerus 49.5191 -35.9384 -23.0683
rradius 44.6785
rwrist -29.7945
rhand 0.875526 10.6071
rfingers 7.12502
rthumb 26.4287 -17.5704
lclavicle 7.95139e-016 1.59028e-015
lhumerus -34.9705 22.792 48.2334
lradius 11.4666
lwrist -63.4971
lhand -2.72474 24.4572
lfingers 7.12502
lthumb 22.9781 53.1077
rfemur -81.8178 11.662 22.8866
rtibia 47.4726
rfoot -8.94501 -21.9119
rtoes 11.3446
lfemur -55.4071 17.0662 -35.4403
ltibia 59.6942
lfoot -35.3906 9.67187
ltoes -33.0439
933
root 6.42529 15.4019 -9.25965 38.3515 -54.1039 -9.9186
lowerback -1.63663 4.09282 0.255583
upperback -10.2788 4.93195 -5.36833
thorax -9.47574 2.06204 -6.18421
lowerneck -8.70569 1.85062 4.71363
upperneck 41.8999 -2.05281 5.9326
head 16.7377 0.255917 1.35795
rclavicle 3.97569e-015 1.43125e-014
rhumerus 48.5912 -36.5646 -22.3315
rradius 45.6313
rwrist -30.4309
rhand -2.04808 11.3442
rfingers 7.12502
rthumb 23.6273 -17.2241
lclavicle 3.97569e-015 1.43125e-014
lhumerus -35.3061 22.0205 49.2844
lradius 11.379
lwrist -63.5251
lhand -3.44038 24.5886
lfingers 7.12502
lthumb 22.2913 53.3228
rfemur -82.2269 10.2555 24.4731
rtibia 46.6857
rfoot -6.2856 -21.9191
rtoes 10.7363
lfemur -54.258 16.7615 -35.4671
ltibia 59.8855
lfoot -35.2632 8.56539
ltoes -32.5588
934
root 6.41783 15.3731 -9.25288 35.7212 -53.2177 -7.91037
lowerback -0.528075 3.47398 -0.28604
upperback -9.92138 4.06763 -5.29894
thorax -9.86571 1.67589 -5.82639
lowerneck -8.34898 1.95369 4.3959
upperneck 41.5349 -1.85154 6.19009
head 16.4407 0.309582 1.54388
rclavicle -8.22969e-014 2.38542e-014
rhumerus 47.4258 -37.1377 -21.3082
rradius 46.5963
rwrist -31.2953
rhand -5.15609 11.7284
rfingers 7.12502
rthumb 20.6434 -17.1938
lclavicle -8.22969e-014 2.38542e-014
lhumerus -36.0901 22.4393 49.7027
lradius 11.4049
lwrist -64.5588
lhand -2.49509 24.4214
lfingers 7.12502
lthumb 23.1985 53.0443
rfemur -82.8255 9.05719 25.2467
rtibia 46.0942
rfoot -2.76756 -22.4549
rtoes 7.44071
lfemur -53.1299 16.5591 -35.9271
ltibia 60.1493
lfoot -34.9423 7.38475
ltoes -32.4374
935
root 6.39828 15.3332 -9.25213 32.9497 -52.343 -5.77866
lowerback 0.712222 2.94644 -1.1732
upperback -9.56624 3.27548 -5.34025
thorax -10.3345 1.35004 -5.38458
lowerneck -8.02722 2.0011 4.40301
upperneck 41.1321 -1.80227 6.41416
head 16.1454 0.348606 1.63011
rclavicle 4.37326e-015 -1.11319e-014
rhumerus 45.5661 -37.7932 -19.8838
rradius 47.6814
rwrist -32.5643
rhand -7.69417 12.3053
rfingers 7.12502
rthumb 18.2031 -16.8629
lclavicle 4.37326e-015 -1.11319e-014
lhumerus -36.7757 23.0934 49.8688
lradius 11.4303
lwrist -66.239
lhand -1.80429 24.1853
lfingers 7.12502
lthumb 23.8611 52.7232
rfemur -83.4225 8.11771 25.4282
rtibia 45.5767
rfoot 0.648207 -23.7654
rtoes 7.60402
lfemur -51.9216 16.364 -36.4948
ltibia 60.315
lfoot -34.25 6.84401
ltoes -33.5785
936
root 6.36733 15.3121 -9.24563 30.1029 -51.3792 -3.68349
lowerback 1.92346 2.47878 -2.18913
upperback -9.10591 2.53362 -5.43282
thorax -10.6517 1.06581 -4.89582
lowerneck -7.95644 1.96186 4.6078
upperneck 40.86 -1.92774 6.54207
head 15.9929 0.3395 1.61963
rclavicle -1.09332e-013 4.77083e-015
rhumerus 43.5514 -38.5982 -18.503
rradius 48.6252
rwrist -33.8197
rhand -9.62482 13.3534
rfingers 7.12502
rthumb 16.3449 -15.9778
lclavicle -1.09332e-013 4.77083e-015
lhumerus -37.3423 24.2762 49.5503
lradius 11.2794
lwrist -68.93
lhand -1.98211 23.458
lfingers 7.12502
lthumb 23.6905 52.018
rfemur -83.8842 7.20981 25.3001
rtibia 45.3836
rfoot 3.24391 -25.7433
rtoes 11.1339
lfemur -50.3177 15.9391 -36.9276
ltibia 60.3804
lfoot -33.5545 6.65367
ltoes -34.6763
937
root 6.33289 15.2915 -9.23712 26.7282 -50.3826 -0.78784
lowerback 3.00712 1.96787 -3.68028
upperback -8.6231 1.65592 -5.66516
thorax -10.8721 0.748895 -4.24671
lowerneck -7.91429 1.84792 4.422
upperneck 40.7264 -2.15008 6.82211
head 15.9236 0.249955 1.73676
rclavicle -1.47101e-014 2.06736e-014
rhumerus 41.4359 -39.165 -16.7957
rradius 49.5755
rwrist -35.334
rhand -12.2456 14.1562
rfingers 7.12502
rthumb 13.8203 -15.3647
lclavicle -1.47101e-014 2.06736e-014
lhumerus -37.5778 24.5313 49.9161
lradius 11.0864
lwrist -69.8676
lhand -1.07409 22.8739
lfingers 7.12502
lthumb 24.5612 51.3185
rfemur -84.5765 6.0484 24.4359
rtibia 45.4974
rfoot 5.66972 -27.8222
rtoes 12.8886
lfemur -48.5558 15.079 -37.8706
ltibia 60.3192
lfoot -32.9532 6.2397
ltoes -34.9055
938
root 6.2869 15.253 -9.22383 23.342 -49.3794 2.3662
lowerback 3.97399 1.32273 -5.63183
upperback -8.25297 0.519262 -5.84286
thorax -11.1377 0.346305 -3.2277
lowerneck -7.89358 1.92686 4.33294
upperneck 40.9211 -2.07867 6.90391
head 16.022 0.27377 1.806
rclavicle -2.54444e-014 -4.45278e-014
rhumerus 35.8691 -39.2737 -11.7833
rradius 52.4098
rwrist -39.55
rhand -14.8783 14.6072
rfingers 7.12502
rthumb 11.2821 -15.0694
lclavicle -2.54444e-014 -4.45278e-014
lhumerus -38.1142 24.1945 50.5431
lradius 10.9884
lwrist -69.4777
lhand -0.957892 22.9085
lfingers 7.12502
lthumb 24.6726 51.3379
rfemur -85.4682 4.62791 23.694
rtibia 45.8361
rfoot 7.97198 -29.7517
rtoes 18.0814
lfemur -46.8863 14.1721 -39.138
ltibia 60.2885
lfoot -32.4686 5.6468
ltoes -34.5502
